<svg width="128px" height="128px" viewBox="0 0 24.00 24.00" fill="none"
    xmlns="http://www.w3.org/2000/svg" stroke="#ffffff">
    <g id="SVGRepo_bgCarrier" stroke-width="0"></g>
    <g id="SVGRepo_tracerCarrier" stroke-linecap="round" stroke-linejoin="round" stroke="#CCCCCC"
        stroke-width="0.048"></g>
    <g id="SVGRepo_iconCarrier">
        <path
            d="M12 22C17.52 22 22 17.52 22 12C22 6.48 17.52 2 12 2C6.48 2 2 6.48 2 12C2 17.52 6.48 22 12 22Z"
            stroke="#ffffff" stroke-width="1.5" stroke-linecap="round" stroke-linejoin="round"></path>
        <g opacity="0.4">
            <path
                d="M12 16C14.21 16 16 14.21 16 12C16 9.79 14.21 8 12 8C9.79 8 8 9.79 8 12C8 14.21 9.79 16 12 16Z"
                stroke="#ffffff" stroke-width="1.5" stroke-linecap="round" stroke-linejoin="round"></path>
            <path d="M21.17 7.99988C18.15 7.33988 15.02 7.33988 12 7.99988" stroke="#ffffff"
                stroke-width="1.5" stroke-linecap="round" stroke-linejoin="round"></path>
            <path
                d="M3.94922 6.05957L3.96922 6.11957C4.97922 9.00957 6.52922 11.6896 8.53922 13.9996"
                stroke="#ffffff" stroke-width="1.5" stroke-linecap="round" stroke-linejoin="round"></path>
            <path d="M10.8809 21.94C12.9409 19.67 14.4909 16.99 15.4309 14.08L15.4609 14"
                stroke="#ffffff" stroke-width="1.5" stroke-linecap="round" stroke-linejoin="round"></path>
        </g>
    </g>
</svg>