<svg xmlns="http://www.w3.org/2000/svg" xmlns:xlink="http://www.w3.org/1999/xlink" version="1.1" width="128" height="128" viewBox="0 0 128 128" xml:space="preserve">
<desc>Created with Fabric.js 5.3.0</desc>
<defs>
</defs>
<g transform="matrix(0.5915032981 0 0 0.5906880361 64.0145302401 63.9335188758)" id="uVsh4ZTkdLWiSn0QxCUHW"  >
<path style="stroke: rgb(0,0,0); stroke-width: 5; stroke-dasharray: none; stroke-linecap: butt; stroke-dashoffset: 0; stroke-linejoin: miter; stroke-miterlimit: 4; fill: none; fill-rule: evenodd; opacity: 1;" vector-effect="non-scaling-stroke"  transform=" translate(-138.3685, -142.3685)" d="M 138.368 241.737 C 193.248 241.737 237.737 197.248 237.737 142.368 C 237.737 87.4888 193.248 43 138.368 43 C 83.4888 43 39 87.4888 39 142.368 C 39 197.248 83.4888 241.737 138.368 241.737 Z" stroke-linecap="round" />
</g>
<g transform="matrix(0.5915032981 0 0 0.5906880361 64.0144710898 63.933459807)" id="c2_p8oA0jwhnXey9mityy"  >
<path style="stroke: rgb(0,0,0); stroke-width: 5; stroke-dasharray: none; stroke-linecap: butt; stroke-dashoffset: 0; stroke-linejoin: miter; stroke-miterlimit: 4; fill: none; fill-rule: nonzero; opacity: 1;" vector-effect="non-scaling-stroke"  transform=" translate(-138.3684, -142.3684)" d="M 138.368 192.826 C 166.235 192.826 188.826 170.235 188.826 142.368 C 188.826 114.501 166.235 91.9108 138.368 91.9108 C 110.501 91.9108 87.9108 114.501 87.9108 142.368 C 87.9108 170.235 110.501 192.826 138.368 192.826 Z" stroke-linecap="round" />
</g>
<g transform="matrix(0.5915032981 0 0 0.5906880361 64.0143823643 63.9335188758)" id="W3fEqY7eRjxHx1A_r3MMq"  >
<path style="stroke: rgb(0,0,0); stroke-width: 5; stroke-dasharray: none; stroke-linecap: butt; stroke-dashoffset: 0; stroke-linejoin: miter; stroke-miterlimit: 4; fill: none;  opacity: 1;" vector-effect="non-scaling-stroke"  transform=" translate(-138.36825, -142.3685)" d="M 138.368 181.938 C 160.222 181.938 177.938 164.222 177.938 142.368 C 177.938 120.515 160.222 102.799 138.368 102.799 C 116.514 102.799 98.7985 120.515 98.7985 142.368 C 98.7985 164.222 116.514 181.938 138.368 181.938 Z" stroke-linecap="round" />
</g>
<g transform="matrix(0.5915032981 0 0 0.5906880361 77.2296011753 100.731020773)" id="O74XurjL63TYN5eyDbMKc"  >
<path style="stroke: rgb(0,0,0); stroke-width: 5; stroke-dasharray: none; stroke-linecap: butt; stroke-dashoffset: 0; stroke-linejoin: miter; stroke-miterlimit: 4; fill: none;  opacity: 1;" vector-effect="non-scaling-stroke"  transform=" translate(-160.71, -204.6645)" d="M 182.085 167.642 L 139.335 241.687" stroke-linecap="round" />
</g>
<g transform="matrix(0.5915032981 0 0 0.5906880361 25.4806338313 56.9905716994)" id="KtbaU_OxnNN6TYHMhlFpN"  >
<path style="stroke: rgb(0,0,0); stroke-width: 5; stroke-dasharray: none; stroke-linecap: butt; stroke-dashoffset: 0; stroke-linejoin: miter; stroke-miterlimit: 4; fill: none; fill-rule: nonzero; opacity: 1;" vector-effect="non-scaling-stroke"  transform=" translate(-73.2228, -130.6145)" d="M 94.5978 167.637 L 51.8478 93.592" stroke-linecap="round" />
</g>
<g transform="matrix(0.5915032981 0 0 0.5906880361 89.30218349 34.1287591564)" id="ACkX1YhC-QJIgfn4giUF3"  >
<path style="stroke: rgb(0,0,0); stroke-width: 5; stroke-dasharray: none; stroke-linecap: butt; stroke-dashoffset: 0; stroke-linejoin: miter; stroke-miterlimit: 4; fill: none; fill-rule: nonzero; opacity: 1;" vector-effect="non-scaling-stroke"  transform=" translate(-181.12, -91.9108)" d="M 138.37 91.9108 L 223.87 91.9108" stroke-linecap="round" />
</g>
</svg>