<svg xmlns="http://www.w3.org/2000/svg" id="图层_1" data-name="图层 1" viewBox="0 0 257.88 257.88"><defs><style>.cls-1{fill:none;stroke:#000;stroke-width:6px}</style></defs><title>webview</title><path d="M129.72,255.94A125.94,125.94,0,1,0,3.78,130,125.94,125.94,0,0,0,129.72,255.94Z" class="cls-1" transform="translate(-0.78 -1.06)"/><path d="M129.72,194a64,64,0,1,0-64-64A64,64,0,0,0,129.72,194Z" class="cls-1" transform="translate(-0.78 -1.06)"/><path d="M129.72,180.15A50.15,50.15,0,1,0,79.57,130,50.15,50.15,0,0,0,129.72,180.15Z" class="cls-1" transform="translate(-0.78 -1.06)"/><path d="M185.13,162,131,255.88" class="cls-1" transform="translate(-0.78 -1.06)"/><path d="M74.25,162,20.07,68.18" class="cls-1" transform="translate(-0.78 -1.06)"/><path d="M129.73,66H238.09" class="cls-1" transform="translate(-0.78 -1.06)"/></svg>